<?xml version="1.0" encoding="utf-8"?>
<!-- Generator: Adobe Illustrator 25.2.1, SVG Export Plug-In . SVG Version: 6.00 Build 0)  -->
<svg version="1.1" id="Layer_1" xmlns="http://www.w3.org/2000/svg" xmlns:xlink="http://www.w3.org/1999/xlink" x="0px" y="0px"
	 viewBox="0 0 46 50" style="enable-background:new 0 0 46 50;" xml:space="preserve">
<style type="text/css">
	.st0{fill:#FFFFFF;}
</style>
<path class="st0" d="M44.6,23.2l-9.1-5.3L28,25.2l6.8,6.6l9.7-5.6c0.3-0.1,0.5-0.4,0.6-0.6c0.2-0.3,0.2-0.6,0.2-0.9
	c0-0.3-0.1-0.6-0.2-0.9C45.1,23.5,44.9,23.3,44.6,23.2z M34,17l-10-5.8L2,0l24.8,24L34,17z M2.4,50L24,38.1l9.3-5.4l-6.5-6.3L2.4,50
	z M0.6,1l0,48.4l25-24.2L0.6,1z"/>
</svg>
