<svg width="61" height="61" viewBox="0 0 61 61" fill="none" xmlns="http://www.w3.org/2000/svg">
<path fill-rule="evenodd" clip-rule="evenodd" d="M18.2177 0.887002C21.3946 0.740752 22.4075 0.708252 30.5 0.708252C38.5925 0.708252 39.6054 0.74346 42.7796 0.887002C45.9537 1.03054 48.1204 1.537 50.0162 2.27096C52.0014 3.02117 53.8025 4.19388 55.2921 5.71054C56.8087 7.19742 57.9787 8.99575 58.7262 10.9837C59.4629 12.8795 59.9666 15.0462 60.1129 18.2149C60.2591 21.3972 60.2916 22.4101 60.2916 30.4999C60.2916 38.5924 60.2564 39.6053 60.1129 42.7822C59.9694 45.951 59.4629 48.1176 58.7262 50.0135C57.9787 52.0016 56.8068 53.803 55.2921 55.292C53.8025 56.8087 52.0014 57.9787 50.0162 58.7262C48.1204 59.4628 45.9537 59.9666 42.785 60.1128C39.6054 60.2591 38.5925 60.2916 30.5 60.2916C22.4075 60.2916 21.3946 60.2564 18.2177 60.1128C15.0489 59.9693 12.8823 59.4628 10.9864 58.7262C8.99831 57.9786 7.19699 56.8066 5.7079 55.292C4.19226 53.8042 3.01937 52.0038 2.27102 50.0162C1.53706 48.1203 1.03331 45.9537 0.887063 42.7849C0.740813 39.6026 0.708313 38.5897 0.708313 30.4999C0.708313 22.4074 0.743521 21.3945 0.887063 18.2203C1.0306 15.0462 1.53706 12.8795 2.27102 10.9837C3.02048 8.99597 4.19426 7.19556 5.7106 5.70784C7.19759 4.19253 8.99709 3.01966 10.9837 2.27096C12.8796 1.537 15.0462 1.03325 18.215 0.887002H18.2177ZM42.5385 6.2495C39.3969 6.10596 38.4544 6.07617 30.5 6.07617C22.5456 6.07617 21.6031 6.10596 18.4614 6.2495C15.5554 6.38221 13.9791 6.867 12.9283 7.27596C11.5389 7.81763 10.545 8.4595 9.50227 9.50221C8.51385 10.4638 7.75318 11.6344 7.27602 12.9283C6.86706 13.9791 6.38227 15.5553 6.24956 18.4614C6.10602 21.603 6.07623 22.5455 6.07623 30.4999C6.07623 38.4543 6.10602 39.3968 6.24956 42.5385C6.38227 45.4445 6.86706 47.0208 7.27602 48.0716C7.75269 49.3635 8.51373 50.5362 9.50227 51.4976C10.4637 52.4862 11.6364 53.2472 12.9283 53.7239C13.9791 54.1328 15.5554 54.6176 18.4614 54.7503C21.6031 54.8939 22.5429 54.9237 30.5 54.9237C38.4571 54.9237 39.3969 54.8939 42.5385 54.7503C45.4446 54.6176 47.0208 54.1328 48.0716 53.7239C49.461 53.1822 50.455 52.5403 51.4977 51.4976C52.4862 50.5362 53.2473 49.3635 53.7239 48.0716C54.1329 47.0208 54.6177 45.4445 54.7504 42.5385C54.8939 39.3968 54.9237 38.4543 54.9237 30.4999C54.9237 22.5455 54.8939 21.603 54.7504 18.4614C54.6177 15.5553 54.1329 13.9791 53.7239 12.9283C53.1823 11.5389 52.5404 10.5449 51.4977 9.50221C50.536 8.51386 49.3654 7.7532 48.0716 7.27596C47.0208 6.867 45.4446 6.38221 42.5385 6.2495ZM26.6948 39.6839C28.8199 40.5685 31.1862 40.6879 33.3896 40.0217C35.5929 39.3554 37.4967 37.9449 38.7756 36.031C40.0545 34.1171 40.6293 31.8185 40.4018 29.5279C40.1742 27.2373 39.1585 25.0967 37.5281 23.4718C36.4887 22.4331 35.232 21.6377 33.8484 21.143C32.4647 20.6483 30.9886 20.4665 29.5263 20.6108C28.064 20.755 26.6518 21.2216 25.3915 21.9771C24.1312 22.7326 23.0541 23.7582 22.2377 24.9799C21.4213 26.2017 20.8859 27.5892 20.6701 29.0427C20.4543 30.4962 20.5635 31.9795 20.9898 33.3857C21.416 34.7919 22.1488 36.0862 23.1353 37.1752C24.1217 38.2643 25.3374 39.121 26.6948 39.6839ZM19.6721 19.672C21.094 18.2501 22.7821 17.1221 24.64 16.3526C26.4978 15.583 28.489 15.1869 30.5 15.1869C32.5109 15.1869 34.5021 15.583 36.36 16.3526C38.2179 17.1221 39.906 18.2501 41.3279 19.672C42.7498 21.0939 43.8778 22.782 44.6473 24.6399C45.4169 26.4977 45.813 28.489 45.813 30.4999C45.813 32.5108 45.4169 34.5021 44.6473 36.3599C43.8778 38.2178 42.7498 39.9059 41.3279 41.3278C38.4562 44.1996 34.5612 45.8129 30.5 45.8129C26.4387 45.8129 22.5438 44.1996 19.6721 41.3278C16.8003 38.4561 15.187 34.5612 15.187 30.4999C15.187 26.4387 16.8003 22.5437 19.6721 19.672ZM49.2091 17.4674C49.5615 17.135 49.8436 16.7353 50.0387 16.2919C50.2338 15.8486 50.338 15.3705 50.3451 14.8862C50.3521 14.4018 50.2619 13.921 50.0798 13.4721C49.8977 13.0232 49.6274 12.6155 49.2849 12.2729C48.9423 11.9304 48.5346 11.6601 48.0857 11.478C47.6368 11.2959 47.156 11.2057 46.6716 11.2127C46.1873 11.2198 45.7093 11.324 45.2659 11.5191C44.8225 11.7142 44.4228 11.9963 44.0904 12.3487C43.4439 13.034 43.09 13.9442 43.1038 14.8862C43.1175 15.8282 43.4978 16.7277 44.1639 17.3939C44.8301 18.06 45.7296 18.4403 46.6716 18.4541C47.6136 18.4678 48.5239 18.1139 49.2091 17.4674Z" fill="white"/>
</svg>
