<?xml version="1.0" encoding="utf-8"?>
<!-- Generator: Adobe Illustrator 25.2.1, SVG Export Plug-In . SVG Version: 6.00 Build 0)  -->
<svg version="1.1" id="Layer_1" xmlns="http://www.w3.org/2000/svg" xmlns:xlink="http://www.w3.org/1999/xlink" x="0px" y="0px"
	 viewBox="0 0 65 65" style="enable-background:new 0 0 65 65;" xml:space="preserve">
<style type="text/css">
	.st0{fill:#FFFFFF;}
</style>
<path class="st0" d="M26.5,4.1c0.5-1.2,1.3-2.2,2.4-3C29.9,0.4,31.2,0,32.5,0c1.3,0,2.6,0.4,3.6,1.1c1.1,0.7,1.9,1.8,2.4,3
	c4.8,1.3,9,4.2,12.1,8.1c3,4,4.7,8.8,4.7,13.8v15.3l6,8.9c0.3,0.5,0.5,1.1,0.5,1.6c0,0.6-0.1,1.2-0.4,1.7c-0.3,0.5-0.7,1-1.2,1.3
	c-0.5,0.3-1.1,0.5-1.7,0.5H43.8c-0.4,2.7-1.7,5.2-3.8,7C37.9,64,35.2,65,32.5,65c-2.7,0-5.4-1-7.4-2.8c-2.1-1.8-3.4-4.3-3.8-7H6.5
	c-0.6,0-1.2-0.2-1.7-0.5c-0.5-0.3-0.9-0.7-1.2-1.3c-0.3-0.5-0.4-1.1-0.4-1.7c0-0.6,0.2-1.2,0.5-1.6l6-8.9V26
	C9.8,15.5,16.8,6.7,26.5,4.1z M27.9,55.3c0.3,1,1,1.8,1.8,2.4c0.8,0.6,1.8,0.9,2.8,0.9c1,0,2-0.3,2.8-0.9c0.8-0.6,1.4-1.4,1.8-2.4
	H27.9L27.9,55.3z M32.5,9.8c-4.3,0-8.4,1.7-11.5,4.8c-3,3-4.8,7.2-4.8,11.5v16.2c0,0.6-0.2,1.3-0.5,1.8l-3.1,4.7h39.8l-3.1-4.7
	c-0.4-0.5-0.5-1.2-0.5-1.8V26c0-4.3-1.7-8.4-4.8-11.5C40.9,11.5,36.8,9.8,32.5,9.8z"/>
</svg>
