<?xml version="1.0" encoding="utf-8"?>
<!-- Generator: Adobe Illustrator 25.2.1, SVG Export Plug-In . SVG Version: 6.00 Build 0)  -->
<svg version="1.1" id="Layer_1" xmlns="http://www.w3.org/2000/svg" xmlns:xlink="http://www.w3.org/1999/xlink" x="0px" y="0px"
	 viewBox="0 0 595.3 595.3" style="enable-background:new 0 0 595.3 595.3;" xml:space="preserve">
<style type="text/css">
	.st0{fill:#FFFFFF;stroke:#FFFFFF;stroke-width:35;stroke-miterlimit:10;}
</style>
<path class="st0" d="M546.4,39.3c-36.8-37.6-113-6.7-159.1,18.3C188.4-21.6-11.5,179.4,66.8,385.2c-24.4,47.2-54.6,125.2-17.9,162.7
	c36.7,37.5,113.5,6.7,159.5-18.1c199,78.9,398-122.3,320.2-327.4C566.4,129.5,575.2,68.7,546.4,39.3z M537.9,48
	c23.3,23.9,15.4,75.9-15.6,138.9C497.5,132.8,454.7,89,401.6,63.8C439.5,44.2,508,17.5,537.9,48z M297.7,52.7
	c97.8,0,181.8,61.2,217.4,148.2c-63.7,119.6-191,249.9-308.1,315C122,479.5,62.1,393.6,62.1,293.6C62.1,160.8,167.8,52.7,297.7,52.7
	z M57.5,539.2C27.6,508.6,53.7,438.7,73,399.9c24.6,54.2,67.4,98,120.4,123.3C131.7,554.9,80.8,563,57.5,539.2z M222.5,521.8
	c111.6-65.1,235-191.4,298.4-305.1C583.3,405.5,406,585.2,222.5,521.8z"/>
</svg>
