<?xml version="1.0" encoding="utf-8"?>
<!-- Generator: Adobe Illustrator 25.2.1, SVG Export Plug-In . SVG Version: 6.00 Build 0)  -->
<svg version="1.1" id="Layer_1" xmlns="http://www.w3.org/2000/svg" xmlns:xlink="http://www.w3.org/1999/xlink" x="0px" y="0px"
	 viewBox="0 0 18 18" style="enable-background:new 0 0 18 18;" xml:space="preserve">
<style type="text/css">
	.st0{fill:#FFFFFF;}
</style>
<path class="st0" d="M9.8,4.5c1-1,2.7-1,3.7,0c1,1,1,2.7,0,3.7c-1,1-2.7,1-3.7,0C8.8,7.2,8.8,5.6,9.8,4.5z M12.5,5.5
	C12,5,11.2,5,10.7,5.5s-0.5,1.3,0,1.8c0.5,0.5,1.3,0.5,1.8,0C13.1,6.8,13.1,6,12.5,5.5z"/>
<path class="st0" d="M9.8,16.3c-0.7,0.3-1.6,0.2-2.2-0.4l-0.8-0.8l-1,1.6c-0.1,0.2-0.3,0.3-0.5,0.3c-0.2,0-0.4,0-0.5-0.2l-3.7-3.7
	C1,13,0.9,12.8,0.9,12.6c0-0.2,0.1-0.4,0.3-0.5l1.6-1L2,10.4C1.4,9.8,1.3,8.9,1.7,8.2L0.2,6.7c-0.3-0.3-0.3-0.7,0-0.9l1.4-1.4
	c1.2-1.2,3-1.5,4.5-0.8l1.2-1.2c2.2-2.2,5.4-2.9,8.3-2c1,0.3,1.8,1.1,2.1,2.1c0.9,2.9,0.1,6.1-2,8.3L14.4,12
	c0.7,1.5,0.4,3.3-0.8,4.5l-1.4,1.4c-0.3,0.3-0.7,0.3-0.9,0L9.8,16.3z M15.2,1.6c-2.5-0.8-5.1-0.1-7,1.7L7.1,4.4l0,0L6.2,5.3l0,0
	L3.4,8.1l0,0L2.9,8.6C2.7,8.9,2.7,9.2,3,9.5L8.5,15c0.2,0.2,0.6,0.3,0.9,0.1l0.5-0.5l0,0l2.8-2.8l0,0l0.9-0.9l0,0l1.1-1.1
	c1.8-1.8,2.5-4.5,1.7-7C16.2,2.3,15.7,1.8,15.2,1.6z M10.8,15.5l0.9,0.9l0.9-0.9c0.7-0.7,0.9-1.7,0.7-2.5L10.8,15.5z M5,4.7
	c-0.9-0.2-1.8,0-2.5,0.7L1.6,6.3l0.9,0.9L5,4.7z M5.8,14.2l-2.1-2.1l-1.2,0.7l2.5,2.5L5.8,14.2z"/>
</svg>
