<?xml version="1.0" encoding="utf-8"?>
<!-- Generator: Adobe Illustrator 25.2.1, SVG Export Plug-In . SVG Version: 6.00 Build 0)  -->
<svg version="1.1" id="Layer_1" xmlns="http://www.w3.org/2000/svg" xmlns:xlink="http://www.w3.org/1999/xlink" x="0px" y="0px"
	 viewBox="0 0 595.3 340.2" style="enable-background:new 0 0 595.3 340.2;" xml:space="preserve">
<style type="text/css">
	.st0{fill:#FFFFFF;}
</style>
<path class="st0" d="M474.1,160.7c-5.6,2.4-11.5,4.6-17.5,7c0,0.3,0,0.5,0,0.8c0,10-1,19.8-2.9,29.1c-2.3-0.6-5-1-8.4-1
	c-6.9,0-32.6,8-47.3,10c-15.1,2-30.8,3.3-45.4,6.4c-34,7.4-77.8,34.6-87.4,34.3c-4.1-0.1-4.3-3.1-9.9-3.1
	c-10.3,0.1-34.9,18.6-50.3,18.6c-3.9,0-7.6-1.6-10.9-4c-4.4-5.6-8.4-11.6-11.9-17.9c-6.5,1-12.9,2-19.1,2.9
	c27,54.1,82.6,91.3,146.9,91.3c90.6,0,164.2-73.9,164.2-165C474.3,167,474.2,163.8,474.1,160.7z M411.9,274.2
	c-24.9,8.6-96.4,35.9-121.3,33.1c-11.9-0.4-21-4-28.5-4.9c-4.3-0.5-10.8-0.5-13.8-0.4c-10.5-4.9-20.3-11-29.3-18
	c11.5-2.6,28.8-6.5,39.6-7.6c17.4-1.9,46.3,1.6,76.6-2.8c25.1-3.5,81.6-26.8,99-27.5C428.1,256.6,420.6,265.9,411.9,274.2z
	 M163.9,181c18.5-0.5,66.8-2.4,95.3-7.8c31.9-6,95.1-27.9,126.2-32.8c23.4-3.6,52.1-6,67-7c1,4,1.8,8.1,2.4,12.3
	c5.8-2.6,11.3-5.1,16.4-7.8c-4.1-20.8-12-40-23-57.1c-4-6.1-8.3-12-13-17.6c-30.1-35.5-74.9-58-125-58
	c-78.9,0-144.8,55.9-160.7,130.4c-1.6,7.5-2.6,15.3-3.3,23.1c-0.3,3.8-0.4,7.6-0.4,11.5c0,17.9,2.9,35,8,51.1
	c5.9-0.4,12.1-0.9,18.6-1.4C168,207.6,165,194.6,163.9,181z M232.8,98.3c-15.5-0.8-39.9,3-54.6,5.6c3.1-6.5,6.8-12.6,10.8-18.6
	c8.4-2.3,22.4-8,39.1-10.1c30.1-3.8,50.6-0.3,80.4-0.1c26.8,0,76.6-13.4,93.4-20.3c3.4,3,8.4,7.3,12.8,11.4c2.3,2.1,4.3,4.1,5.8,5.9
	c-10.3,3.8-42.4,15.1-73.6,23.6c-12.4,3.4-24.8,6.3-35.5,8l0,0c-9.4,1.5-17.6,2.3-23.8,1.6c-9.1-0.9-18.6-2.9-30-4.5
	C250,99.7,241.9,98.8,232.8,98.3z"/>
<path class="st0" d="M474.1,160.7c-5.6,2.4-11.5,4.6-17.5,7c-41.6,16.1-90.6,31.9-143.5,45.6c-46.3,12-90.6,21.4-130.7,27.6
	c-6.5,1-12.9,2-19.1,2.9c-91.1,12.8-155.7,9-161.4-13.1c-6-23.1,54.4-60.4,147.8-95.2c-1.6,7.5-2.6,15.3-3.3,23.1
	c-40.8,18.9-64.6,36.9-61.4,49.1c3,11.5,29.1,15.8,69.1,13.5c5.9-0.4,12.1-0.9,18.6-1.4c39.4-3.8,88.9-12.8,141.9-26.5
	c54.8-14.3,103.8-31.3,140.4-47.6c5.8-2.6,11.3-5.1,16.4-7.8c34.1-17,53.6-32.9,50.6-44c-3.1-11.9-31.1-16-73.6-13.3
	c-4-6.1-8.3-12-13-17.6c89.4-12.1,152.4-8.3,158,13.5C598.6,97.4,550.8,129.3,474.1,160.7z"/>
</svg>
